<?xml version="1.0" standalone="no"?>
<!DOCTYPE svg PUBLIC "-//W3C//DTD SVG 20010904//EN"
 "http://www.w3.org/TR/2001/REC-SVG-20010904/DTD/svg10.dtd">
<svg version="1.0" xmlns="http://www.w3.org/2000/svg"
 width="700.000000pt" height="700.000000pt" viewBox="0 0 700.000000 700.000000"
 preserveAspectRatio="xMidYMid meet">
<metadata>
Created by potrace 1.14, written by Peter Selinger 2001-2017
</metadata>
<g transform="translate(0.000000,700.000000) scale(0.100000,-0.100000)"
fill="#000000" stroke="none">
<path d="M3835 6898 c-91 -11 -278 -58 -396 -101 -562 -204 -1091 -603 -1476
-1112 -214 -283 -389 -621 -507 -980 -34 -102 -98 -350 -110 -420 -2 -16 -9
-55 -15 -85 -6 -30 -13 -73 -15 -95 -3 -22 -8 -62 -12 -90 -34 -262 -39 -749
-9 -985 3 -19 6 -60 9 -90 l4 -55 -84 -69 c-276 -230 -554 -554 -737 -861
-144 -242 -288 -607 -342 -871 -2 -11 -8 -39 -14 -64 -18 -80 -42 -225 -56
-340 -3 -25 -8 -59 -10 -76 -2 -17 -6 -66 -10 -110 -3 -43 -8 -101 -10 -129
-3 -27 -7 -121 -11 -207 l-5 -158 775 0 776 0 1 23 c1 12 3 33 4 47 1 14 5 83
9 155 5 72 9 146 11 165 11 165 17 240 20 270 2 19 7 64 10 100 3 36 7 76 10
90 2 14 7 48 10 75 3 28 8 57 10 65 2 8 6 31 9 50 10 66 46 193 69 244 90 194
220 144 425 -164 72 -107 245 -296 364 -398 112 -96 392 -292 417 -292 5 0 11
-3 13 -7 2 -5 21 -17 43 -28 22 -11 56 -29 75 -40 95 -58 408 -178 580 -223
93 -25 268 -62 312 -66 18 -2 51 -6 73 -9 144 -22 442 -28 605 -14 531 48
1068 265 1362 553 339 332 583 666 733 1006 60 135 61 139 93 233 117 344 152
700 102 1056 -15 108 -75 350 -100 404 -5 11 -21 51 -34 88 -27 73 -112 244
-152 308 -13 21 -24 41 -24 44 0 3 -17 29 -37 58 -20 28 -47 66 -58 84 -122
178 -335 394 -541 549 -206 155 -463 291 -704 373 -52 18 -102 35 -110 38 -8
3 -24 8 -35 10 -11 2 -31 7 -45 13 -33 12 -205 48 -266 55 -26 4 -51 8 -54 10
-28 18 -490 27 -622 12 -130 -14 -275 -38 -373 -62 -11 -3 -29 -7 -40 -10
-209 -48 -560 -193 -764 -314 -268 -160 -551 -378 -738 -570 -38 -39 -36 -44
-34 94 1 96 5 138 21 225 6 30 13 69 16 85 31 171 145 482 254 690 172 327
375 602 632 858 197 195 376 328 607 451 68 37 136 76 151 89 15 12 37 29 50
37 63 43 158 136 196 192 35 51 44 101 24 137 -27 51 -171 76 -325 59z m895
-3252 c25 -4 52 -9 60 -11 8 -2 31 -7 50 -10 19 -3 68 -17 108 -31 347 -116
597 -388 692 -752 11 -42 23 -99 26 -127 3 -27 8 -61 10 -75 16 -89 -7 -369
-37 -446 -6 -16 -10 -31 -10 -34 3 -32 -65 -197 -118 -287 -186 -320 -482
-523 -882 -607 -117 -25 -413 -29 -544 -7 -543 88 -1020 397 -1370 886 -55 77
-96 143 -164 268 l-32 57 43 73 c243 410 680 770 1158 955 107 42 245 87 290
95 14 3 57 12 95 21 73 16 106 21 215 32 36 4 66 8 68 9 6 5 295 -3 342 -9z"/>
</g>
</svg>
