<svg viewBox="0 0 640 240" xmlns="http://www.w3.org/2000/svg">
	<title>JamBon Software Logo</title>
	<g id="jambon">
		<path d="m19.7 84h33.3v58.5c0 11.2-8.2 17.4-17 17.4-10.7.4-18.3-9.6-16.7-21.7h-15.1c-1.8 21.1 10.7 36.4 32.1 35.9 19.5 0 31.8-11.5 31.8-32.9v-71.7h-48.4z"/>
		<path d="m117.8 69.6-38 103h16.2l11.5-32.1h32.4l11.5 32.1h16.2l-38.2-103zm-5 56.5 10.9-29.1c1.7 4.2 3.2 8.8 10.9 29.1z"/>
		<path d="m262.5 69.6-26.7 75-26.8-75h-17.3l-9.1 103h15.1c2.4-23.3 5.1-46.5 7.6-69.8l25.1 69.8h10.3l25.4-70 7.4 70h15l-8.9-103z"/>
		<path d="m364.5 116.1c17-19 5.9-47.8-24.5-46.5h-29.1v103h34.9c32.3 1.4 43.8-43.7 18.7-56.5zm-38.5-32.1c13.1.2 30.1-3 30.3 12.9-.1 18.5-17.9 12.4-30.3 13.3zm19.7 74.2h-19.7v-33.6h19.9c21.3-.2 21.5 33.9-.2 33.6z"/>
		<path d="m439.6 68.1c-60.6.1-60.7 105.8 0 106 60.8-.3 60.8-105.8 0-106zm0 91.8c-39.6.3-39.7-77.7 0-77.4 39.9-.2 39.8 77.8 0 77.4z"/>
		<path d="m613.2 25.1c-10.4-1.7-20.7 2.9-28.2 9.8-.6-8.3 7.2-21.1 16.4-25.3 17-10.9-30.8-5.8-25.7 36-15.3 12.6-12.9 26.3-12.9 44.7 0 12 .1 39.6 0 52l-42.7-72.7h-14.1v103h15.2v-72.1l42.7 72.1h14.1c.9-9.6-2-104.5 2.3-110.9 1.6-3.2 3.2 1.2 4.7 2.8 9.1 10.8 25.9 13.8 37.7 5.6 17.6-11.8 12.3-42-9.5-45zm1.5 35.2c-7.7 5-20.6 1.7-26.6-10.3 4.5-8.3 14.7-13.2 23-12 11.2 1.9 12.3 16.7 3.6 22.3z"/>
	</g>
	<g id="software">
		<path d="m326.6 221.5c0-2.4-3.2-4.2-6.1-5.5-23.2-9 4.5-32.5 17.9-15.9l-5.6 4.6c-2.7-4.1-12.7-4.5-13.2.9 2.2 5.7 15.5 6.1 14.9 14.7.6 12-20 17.8-27.5 7.3l5.6-4.6c3 4.6 13.9 4.1 14-1.5z"/>
		<path d="m374.9 210.1c.8 21.4-32.7 34.8-34.6 7.3-.8-21.7 32.7-34.6 34.6-7.3zm-26.6 6.5c.6 17.3 19.2 7.8 18.6-5.7 0-5.4-2.7-9.4-6.8-9.4-5.5 0-11.8 6.8-11.8 15.1z"/>
		<path d="m392.9 202.2h9.6l1.5-7h-9.6c1-7.1 5.9-10.1 11.1-7.1l4.5-5.7c-9.2-6.5-21.3.2-23.2 12.8h-4.9l-1.5 7h4.9l-6.4 30.2h7.5z"/>
		<path d="m412.8 202.2h-4.9l1.5-7h4.9l1.9-9.1h7.5l-1.9 9.1h9l-1.5 7h-9c-.2 5.5-11.2 33 4.5 21l2.3 6.9c-26.1 11.9-17.3-13.8-14.3-27.9z"/>
		<path d="m455 211.2c-3.1 6.8-6.3 14.4-9.4 21.2h-7l-2.4-37.2h7.1l1 26.2 11.1-26.2h6l-.1 26.3 12.3-26.3h7.1l-18.3 37.2h-7.1z"/>
		<path d="m482.3 200.3c9.1-7.9 28-8.5 27.5 4.7.2 4.1-3.2 16.4-3.9 20.6.2 2.4 2.8 1.9 4.4 1.4v5.5c-4.5 1.7-11.4.4-11.7-4.6-23.3 19.2-33.9-19.2 3.5-18.5 2.1-11.2-9.6-8.2-15.3-3.5zm2.9 22.1c2.5 9.4 16.4-1.4 15.5-6.8-3.9.2-15.5.5-15.5 6.8z"/>
		<path d="m529.3 202.9c5.1-8.9 10.9-10.6 17.6-6.1l-4.6 6.8c-6-4.3-13.5 2.4-15.2 9.4 0 0-4 19.4-4 19.4h-7.6l7.9-37.2h7.2z"/>
		<path d="m578 207c.3 13.2-18.9 7.4-26.5 8.6-.8 12.4 11.3 13.4 17.8 4.7l4.5 5c-10.3 12.2-29.9 10.2-30.2-7.8-1.6-19.9 31.6-35 34.4-10.5zm-9.3 2.3c6.5-5-8.3-14.6-15.5 0z"/>
	</g>
    <style>
        #jambon > path { fill: #F68D5E; }
		#software > path { fill: #36C0C8; }
        @media (prefers-color-scheme: dark) {
			#jambon > path { fill: #FFF; }
			#software > path { fill: #FFF; }
        }
    </style>
</svg>
